<svg width="10" height="10" viewBox="0 0 10 10" fill="none" xmlns="http://www.w3.org/2000/svg">
<path fill-rule="evenodd" clip-rule="evenodd" d="M0.732235 9.26775C1.46446 10 2.64297 10 5 10C7.357 10 8.53555 10 9.26775 9.26775C10 8.53555 10 7.357 10 5C10 2.64297 10 1.46446 9.26775 0.732235C8.53555 -5.96046e-08 7.357 0 5 0C2.64297 0 1.46446 -5.96046e-08 0.732235 0.732235C-5.96046e-08 1.46446 0 2.64297 0 5C0 7.357 -5.96046e-08 8.53555 0.732235 9.26775ZM3.75 3.375C2.85253 3.375 2.125 4.10255 2.125 5C2.125 5.89745 2.85253 6.625 3.75 6.625C4.64745 6.625 5.375 5.89745 5.375 5C5.375 4.7929 5.5429 4.625 5.75 4.625C5.9571 4.625 6.125 4.7929 6.125 5C6.125 6.3117 5.0617 7.375 3.75 7.375C2.43832 7.375 1.375 6.3117 1.375 5C1.375 3.68832 2.43832 2.625 3.75 2.625C3.9571 2.625 4.125 2.79289 4.125 3C4.125 3.2071 3.9571 3.375 3.75 3.375ZM7.875 5C7.875 5.89745 7.14745 6.625 6.25 6.625C6.0429 6.625 5.875 6.7929 5.875 7C5.875 7.2071 6.0429 7.375 6.25 7.375C7.5617 7.375 8.625 6.3117 8.625 5C8.625 3.68832 7.5617 2.625 6.25 2.625C4.9383 2.625 3.875 3.68832 3.875 5C3.875 5.2071 4.0429 5.375 4.25 5.375C4.4571 5.375 4.625 5.2071 4.625 5C4.625 4.10255 5.35255 3.375 6.25 3.375C7.14745 3.375 7.875 4.10255 7.875 5Z" fill="#B1B1B1"/>
</svg>
