<svg width="146" height="17" viewBox="0 0 146 17" fill="none" xmlns="http://www.w3.org/2000/svg">
<path d="M3.104 11.12L2.942 7.754L8.972 1.4H12.212L6.776 7.25L5.156 8.978L3.104 11.12ZM0.494 14V1.4H3.392V14H0.494ZM9.116 14L4.634 8.51L6.542 6.44L12.518 14H9.116ZM17.4074 14.144C16.6034 14.144 15.8834 13.988 15.2474 13.676C14.6234 13.364 14.1374 12.89 13.7894 12.254C13.4414 11.606 13.2674 10.784 13.2674 9.788V4.316H16.0754V9.374C16.0754 10.178 16.2434 10.772 16.5794 11.156C16.9274 11.528 17.4134 11.714 18.0374 11.714C18.4694 11.714 18.8534 11.624 19.1894 11.444C19.5254 11.252 19.7894 10.964 19.9814 10.58C20.1734 10.184 20.2694 9.692 20.2694 9.104V4.316H23.0774V14H20.4134V11.336L20.8994 12.11C20.5754 12.782 20.0954 13.292 19.4594 13.64C18.8354 13.976 18.1514 14.144 17.4074 14.144ZM25.6788 14V0.643999H28.4868V14H25.6788ZM35.8989 14.144C34.7949 14.144 33.8229 13.928 32.9829 13.496C32.1549 13.064 31.5129 12.476 31.0569 11.732C30.6009 10.976 30.3729 10.118 30.3729 9.158C30.3729 8.186 30.5949 7.328 31.0389 6.584C31.4949 5.828 32.1129 5.24 32.8929 4.82C33.6729 4.388 34.5549 4.172 35.5389 4.172C36.4869 4.172 37.3389 4.376 38.0949 4.784C38.8629 5.18 39.4689 5.756 39.9129 6.512C40.3569 7.256 40.5789 8.15 40.5789 9.194C40.5789 9.302 40.5729 9.428 40.5609 9.572C40.5489 9.704 40.5369 9.83 40.5249 9.95H32.6589V8.312H39.0489L37.9689 8.798C37.9689 8.294 37.8669 7.856 37.6629 7.484C37.4589 7.112 37.1769 6.824 36.8169 6.62C36.4569 6.404 36.0369 6.296 35.5569 6.296C35.0769 6.296 34.6509 6.404 34.2789 6.62C33.9189 6.824 33.6369 7.118 33.4329 7.502C33.2289 7.874 33.1269 8.318 33.1269 8.834V9.266C33.1269 9.794 33.2409 10.262 33.4689 10.67C33.7089 11.066 34.0389 11.372 34.4589 11.588C34.8909 11.792 35.3949 11.894 35.9709 11.894C36.4869 11.894 36.9369 11.816 37.3209 11.66C37.7169 11.504 38.0769 11.27 38.4009 10.958L39.8949 12.578C39.4509 13.082 38.8929 13.472 38.2209 13.748C37.5489 14.012 36.7749 14.144 35.8989 14.144ZM45.7063 14.144C44.8783 14.144 44.0803 14.048 43.3123 13.856C42.5563 13.652 41.9563 13.4 41.5123 13.1L42.4483 11.084C42.8923 11.36 43.4143 11.588 44.0143 11.768C44.6263 11.936 45.2263 12.02 45.8143 12.02C46.4623 12.02 46.9183 11.942 47.1823 11.786C47.4583 11.63 47.5963 11.414 47.5963 11.138C47.5963 10.91 47.4883 10.742 47.2723 10.634C47.0683 10.514 46.7923 10.424 46.4443 10.364C46.0963 10.304 45.7123 10.244 45.2923 10.184C44.8843 10.124 44.4703 10.046 44.0503 9.95C43.6303 9.842 43.2463 9.686 42.8983 9.482C42.5503 9.278 42.2683 9.002 42.0523 8.654C41.8483 8.306 41.7463 7.856 41.7463 7.304C41.7463 6.692 41.9203 6.152 42.2683 5.684C42.6283 5.216 43.1443 4.85 43.8163 4.586C44.4883 4.31 45.2923 4.172 46.2283 4.172C46.8883 4.172 47.5603 4.244 48.2443 4.388C48.9283 4.532 49.4983 4.742 49.9543 5.018L49.0183 7.016C48.5503 6.74 48.0763 6.554 47.5963 6.458C47.1283 6.35 46.6723 6.296 46.2283 6.296C45.6043 6.296 45.1483 6.38 44.8603 6.548C44.5723 6.716 44.4283 6.932 44.4283 7.196C44.4283 7.436 44.5303 7.616 44.7343 7.736C44.9503 7.856 45.2323 7.952 45.5803 8.024C45.9283 8.096 46.3063 8.162 46.7143 8.222C47.1343 8.27 47.5543 8.348 47.9743 8.456C48.3943 8.564 48.7723 8.72 49.1083 8.924C49.4563 9.116 49.7383 9.386 49.9543 9.734C50.1703 10.07 50.2783 10.514 50.2783 11.066C50.2783 11.666 50.0983 12.2 49.7383 12.668C49.3783 13.124 48.8563 13.484 48.1723 13.748C47.5003 14.012 46.6783 14.144 45.7063 14.144ZM57.8968 4.172C58.6648 4.172 59.3488 4.328 59.9488 4.64C60.5608 4.94 61.0408 5.408 61.3888 6.044C61.7368 6.668 61.9108 7.472 61.9108 8.456V14H59.1028V8.888C59.1028 8.108 58.9288 7.532 58.5808 7.16C58.2448 6.788 57.7648 6.602 57.1408 6.602C56.6968 6.602 56.2948 6.698 55.9348 6.89C55.5868 7.07 55.3108 7.352 55.1068 7.736C54.9148 8.12 54.8188 8.612 54.8188 9.212V14H52.0108V0.643999H54.8188V6.998L54.1888 6.188C54.5368 5.54 55.0348 5.042 55.6828 4.694C56.3308 4.346 57.0688 4.172 57.8968 4.172ZM69.1345 14.144C68.1025 14.144 67.1845 13.928 66.3805 13.496C65.5885 13.064 64.9585 12.476 64.4905 11.732C64.0345 10.976 63.8065 10.118 63.8065 9.158C63.8065 8.186 64.0345 7.328 64.4905 6.584C64.9585 5.828 65.5885 5.24 66.3805 4.82C67.1845 4.388 68.1025 4.172 69.1345 4.172C70.1545 4.172 71.0665 4.388 71.8705 4.82C72.6745 5.24 73.3045 5.822 73.7605 6.566C74.2165 7.31 74.4445 8.174 74.4445 9.158C74.4445 10.118 74.2165 10.976 73.7605 11.732C73.3045 12.476 72.6745 13.064 71.8705 13.496C71.0665 13.928 70.1545 14.144 69.1345 14.144ZM69.1345 11.84C69.6025 11.84 70.0225 11.732 70.3945 11.516C70.7665 11.3 71.0605 10.994 71.2765 10.598C71.4925 10.19 71.6005 9.71 71.6005 9.158C71.6005 8.594 71.4925 8.114 71.2765 7.718C71.0605 7.322 70.7665 7.016 70.3945 6.8C70.0225 6.584 69.6025 6.476 69.1345 6.476C68.6665 6.476 68.2465 6.584 67.8745 6.8C67.5025 7.016 67.2025 7.322 66.9745 7.718C66.7585 8.114 66.6505 8.594 66.6505 9.158C66.6505 9.71 66.7585 10.19 66.9745 10.598C67.2025 10.994 67.5025 11.3 67.8745 11.516C68.2465 11.732 68.6665 11.84 69.1345 11.84ZM78.6857 14L74.6177 4.316H77.5157L80.8997 12.65H79.4597L82.9697 4.316H85.6697L81.5837 14H78.6857Z" fill="#3E95FB"/>
<path d="M92.2132 14.084C91.9519 14.084 91.7279 13.9953 91.5412 13.818C91.3545 13.6313 91.2612 13.398 91.2612 13.118C91.2612 12.838 91.3545 12.6093 91.5412 12.432C91.7279 12.2547 91.9519 12.166 92.2132 12.166C92.4652 12.166 92.6799 12.2547 92.8572 12.432C93.0439 12.6093 93.1372 12.838 93.1372 13.118C93.1372 13.398 93.0439 13.6313 92.8572 13.818C92.6799 13.9953 92.4652 14.084 92.2132 14.084ZM95.0631 14V3.612H96.4071V14H95.0631ZM103.579 14V12.432L103.509 12.138V9.464C103.509 8.89467 103.341 8.456 103.005 8.148C102.679 7.83067 102.184 7.672 101.521 7.672C101.083 7.672 100.653 7.74667 100.233 7.896C99.8132 8.036 99.4586 8.22733 99.1692 8.47L98.6092 7.462C98.9919 7.154 99.4492 6.92067 99.9812 6.762C100.523 6.594 101.087 6.51 101.675 6.51C102.693 6.51 103.477 6.75733 104.027 7.252C104.578 7.74667 104.853 8.50267 104.853 9.52V14H103.579ZM101.143 14.084C100.593 14.084 100.107 13.9907 99.6872 13.804C99.2766 13.6173 98.9592 13.3607 98.7352 13.034C98.5112 12.698 98.3992 12.32 98.3992 11.9C98.3992 11.4987 98.4926 11.1347 98.6792 10.808C98.8752 10.4813 99.1879 10.22 99.6172 10.024C100.056 9.828 100.644 9.73 101.381 9.73H103.733V10.696H101.437C100.765 10.696 100.313 10.808 100.079 11.032C99.8459 11.256 99.7292 11.5267 99.7292 11.844C99.7292 12.208 99.8739 12.502 100.163 12.726C100.453 12.9407 100.854 13.048 101.367 13.048C101.871 13.048 102.31 12.936 102.683 12.712C103.066 12.488 103.341 12.1613 103.509 11.732L103.775 12.656C103.598 13.0947 103.285 13.4447 102.837 13.706C102.389 13.958 101.825 14.084 101.143 14.084ZM108.772 14L106.014 6.58H107.288L109.738 13.3H109.136L111.684 6.58H112.818L115.31 13.3H114.722L117.228 6.58H118.432L115.66 14H114.372L112.034 7.868H112.426L110.06 14H108.772ZM119.795 14V6.58H121.139V14H119.795ZM120.467 5.152C120.206 5.152 119.987 5.068 119.809 4.9C119.641 4.732 119.557 4.52667 119.557 4.284C119.557 4.032 119.641 3.822 119.809 3.654C119.987 3.486 120.206 3.402 120.467 3.402C120.729 3.402 120.943 3.486 121.111 3.654C121.289 3.81267 121.377 4.01333 121.377 4.256C121.377 4.508 121.293 4.72267 121.125 4.9C120.957 5.068 120.738 5.152 120.467 5.152ZM132.988 6.51C133.585 6.51 134.112 6.62667 134.57 6.86C135.027 7.09333 135.382 7.448 135.634 7.924C135.895 8.4 136.026 9.002 136.026 9.73V14H134.682V9.884C134.682 9.16533 134.514 8.624 134.178 8.26C133.842 7.896 133.37 7.714 132.764 7.714C132.316 7.714 131.924 7.80733 131.588 7.994C131.252 8.18067 130.99 8.456 130.804 8.82C130.626 9.184 130.538 9.63667 130.538 10.178V14H129.194V9.884C129.194 9.16533 129.026 8.624 128.69 8.26C128.363 7.896 127.892 7.714 127.276 7.714C126.837 7.714 126.45 7.80733 126.114 7.994C125.778 8.18067 125.516 8.456 125.33 8.82C125.143 9.184 125.05 9.63667 125.05 10.178V14H123.706V6.58H124.994V8.554L124.784 8.05C125.017 7.56467 125.376 7.18667 125.862 6.916C126.347 6.64533 126.912 6.51 127.556 6.51C128.265 6.51 128.876 6.68733 129.39 7.042C129.903 7.38733 130.239 7.91467 130.398 8.624L129.852 8.4C130.076 7.83067 130.468 7.37333 131.028 7.028C131.588 6.68267 132.241 6.51 132.988 6.51ZM141.747 16.8C141.065 16.8 140.403 16.702 139.759 16.506C139.124 16.3193 138.606 16.0487 138.205 15.694L138.849 14.658C139.194 14.9567 139.619 15.19 140.123 15.358C140.627 15.5353 141.154 15.624 141.705 15.624C142.582 15.624 143.226 15.4187 143.637 15.008C144.047 14.5973 144.253 13.972 144.253 13.132V11.564L144.393 10.094L144.323 8.61V6.58H145.597V12.992C145.597 14.2987 145.27 15.26 144.617 15.876C143.963 16.492 143.007 16.8 141.747 16.8ZM141.579 13.692C140.86 13.692 140.216 13.5427 139.647 13.244C139.087 12.936 138.639 12.5113 138.303 11.97C137.976 11.4287 137.813 10.8033 137.813 10.094C137.813 9.37533 137.976 8.75 138.303 8.218C138.639 7.67667 139.087 7.25667 139.647 6.958C140.216 6.65933 140.86 6.51 141.579 6.51C142.213 6.51 142.792 6.64067 143.315 6.902C143.837 7.154 144.253 7.546 144.561 8.078C144.878 8.61 145.037 9.282 145.037 10.094C145.037 10.8967 144.878 11.564 144.561 12.096C144.253 12.628 143.837 13.0293 143.315 13.3C142.792 13.5613 142.213 13.692 141.579 13.692ZM141.733 12.516C142.227 12.516 142.666 12.4133 143.049 12.208C143.431 12.0027 143.73 11.718 143.945 11.354C144.169 10.99 144.281 10.57 144.281 10.094C144.281 9.618 144.169 9.198 143.945 8.834C143.73 8.47 143.431 8.19 143.049 7.994C142.666 7.78867 142.227 7.686 141.733 7.686C141.238 7.686 140.795 7.78867 140.403 7.994C140.02 8.19 139.717 8.47 139.493 8.834C139.278 9.198 139.171 9.618 139.171 10.094C139.171 10.57 139.278 10.99 139.493 11.354C139.717 11.718 140.02 12.0027 140.403 12.208C140.795 12.4133 141.238 12.516 141.733 12.516Z" fill="#111111"/>
</svg>
